# xmcd CD database file
#
# Track frame offsets:
#	150
#	10748
#	25440
#	36028
#
# Disc length: 674 seconds
#
# Revision: 0
# Processed by: cddbd v1.5PL3 Copyright (c) Steve Scherf et al.
# Submitted via: CDex 1.51
#
DISCID=2502a004
DTITLE=高山成孝 - 激走戦隊カーレンジャー
DYEAR=1900
DGENRE=Anime
TTITLE0=天国サンバ
TTITLE1=俺達はカーレンジャー
TTITLE2=天国サンバ(Off Vocal)
TTITLE3=俺達はカーレンジャー(Off Vocal)
EXTD=
EXTT0=
EXTT1=
EXTT2=
EXTT3=
PLAYORDER=
